<svg xmlns="http://www.w3.org/2000/svg" width="700" height="500"><rect width="700" height="500" x="0" y="0" fill="#FFFFFF" id="backgorund"/><g id="viz"><g transform="translate(0,0)"><g transform="translate(10,20)"><g><path fill="#d62728" d="M0,8.50000000000001C17,8.50000000000001,17,7.04000000000001,34,7.04000000000001C51,7.04000000000001,51,6.580000000000009,68,6.580000000000009C85,6.580000000000009,85,4.280000000000008,102,4.280000000000008C119,4.280000000000008,119,3.8200000000000074,136,3.8200000000000074C153,3.8200000000000074,153,3.8200000000000074,170,3.8200000000000074C187,3.8200000000000074,187,4.280000000000008,204,4.280000000000008C221,4.280000000000008,221,3.8200000000000074,237.99999999999997,3.8200000000000074C255,3.8200000000000074,255,5.660000000000009,272,5.660000000000009C289,5.660000000000009,289,5.660000000000009,306,5.660000000000009C323,5.660000000000009,323,5.200000000000008,340,5.200000000000008C357,5.200000000000008,357,5.660000000000009,374.00000000000006,5.660000000000009C391,5.660000000000009,391,5.660000000000009,408,5.660000000000009C425,5.660000000000009,425,5.660000000000009,442,5.660000000000009C459,5.660000000000009,459,4.740000000000007,475.99999999999994,4.740000000000007C493,4.740000000000007,493,3.819999999999956,510,3.819999999999956C527,3.819999999999956,527,2.439999999999955,544,2.439999999999955C561,2.439999999999955,561,3.360000000000058,578,3.360000000000058C595,3.360000000000058,595,3.359999999999955,612,3.359999999999955C629,3.359999999999955,629,2.9000000000000057,646,2.9000000000000057C663,2.9000000000000057,663,2.900000000000057,680,2.900000000000057L680,228.76000000000005C663,228.76000000000005,663,237.96,646,237.96C629,237.96,629,235.65999999999997,612,235.65999999999997C595,235.65999999999997,595,244.86000000000007,578,244.86000000000007C561,244.86000000000007,561,254.97999999999996,544,254.97999999999996C527,254.97999999999996,527,259.58,510,259.58C493,259.58,493,265.56,475.99999999999994,265.56C459,265.56,459,271.08,442,271.08C425,271.08,425,271.08,408,271.08C391,271.08,391,271.53999999999996,374.00000000000006,271.53999999999996C357,271.53999999999996,357,270.15999999999997,340,270.15999999999997C323,270.15999999999997,323,271.53999999999996,306,271.53999999999996C289,271.53999999999996,289,275.68,272,275.68C255,275.68,255,278.44,237.99999999999997,278.44C221,278.44,221,283.5,204,283.5C187,283.5,187,282.58,170,282.58C153,282.58,153,284.88,136,284.88C119,284.88,119,289.02,102,289.02C85,289.02,85,294.54,68,294.54C51,294.54,51,300.52000000000004,34,300.52000000000004C17,300.52000000000004,17,304.74,0,304.74Z"><title>fb</title></path><path fill="#9467bd" d="M0,305.74C17,305.74,17,357.72,34,357.72C51,357.72,51,295.54,68,295.54C85,295.54,85,290.02,102,290.02C119,290.02,119,285.88,136,285.88C153,285.88,153,283.58,170,283.58C187,283.58,187,284.5,204,284.5C221,284.5,221,279.44,237.99999999999997,279.44C255,279.44,255,276.68,272,276.68C289,276.68,289,272.53999999999996,306,272.53999999999996C323,272.53999999999996,323,271.15999999999997,340,271.15999999999997C357,271.15999999999997,357,272.53999999999996,374.00000000000006,272.53999999999996C391,272.53999999999996,391,272.08,408,272.08C425,272.08,425,272.08,442,272.08C459,272.08,459,266.56,475.99999999999994,266.56C493,266.56,493,260.58,510,260.58C527,260.58,527,255.97999999999996,544,255.97999999999996C561,255.97999999999996,561,245.86000000000007,578,245.86000000000007C595,245.86000000000007,595,236.65999999999997,612,236.65999999999997C629,236.65999999999997,629,238.96,646,238.96C663,238.96,663,229.76000000000005,680,229.76000000000005L680,330.04C663,330.04,663,331.42,646,331.42C629,331.42,629,323.14,612,323.14C595,323.14,595,330.04,578,330.04C561,330.04,561,333.71999999999997,544,333.71999999999997C527,333.71999999999997,527,335.56,510,335.56C493,335.56,493,336.48,475.99999999999994,336.48C459,336.48,459,339.7,442,339.7C425,339.7,425,335.09999999999997,408,335.09999999999997C391,335.09999999999997,391,339.24,374.00000000000006,339.24C357,339.24,357,337.4,340,337.4C323,337.4,323,339.7,306,339.7C289,339.7,289,344.76,272,344.76C255,344.76,255,347.98,237.99999999999997,347.98C221,347.98,221,354.88,204,354.88C187,354.88,187,352.12,170,352.12C153,352.12,153,355.34000000000003,136,355.34000000000003C119,355.34000000000003,119,358.1,102,358.1C85,358.1,85,358.1,68,358.1C51,358.1,51,412,34,412C17,412,17,361.40000000000003,0,361.40000000000003Z"><title>sl</title></path><path fill="#2ca02c" d="M0,460C17,460,17,460,34,460C51,460,51,455.4,68,455.4C85,455.4,85,449.88,102,449.88C119,449.88,119,447.58,136,447.58C153,447.58,153,446.65999999999997,170,446.65999999999997C187,446.65999999999997,187,443.44,204,443.44C221,443.44,221,438.84,237.99999999999997,438.84C255,438.84,255,438.38,272,438.38C289,438.38,289,433.78,306,433.78C323,433.78,323,433.32,340,433.32C357,433.32,357,433.78,374.00000000000006,433.78C391,433.78,391,431.47999999999996,408,431.47999999999996C425,431.47999999999996,425,434.23999999999995,442,434.23999999999995C459,434.23999999999995,459,433.78,475.99999999999994,433.78C493,433.78,493,434.7,510,434.7C527,434.7,527,434.23999999999995,544,434.23999999999995C561,434.23999999999995,561,432.86,578,432.86C595,432.86,595,429.64,612,429.64C629,429.64,629,431.47999999999996,646,431.47999999999996C663,431.47999999999996,663,429.64000000000004,680,429.64000000000004L680,460C663,460,663,460,646,460C629,460,629,460,612,460C595,460,595,460,578,460C561,460,561,460,544,460C527,460,527,460,510,460C493,460,493,460,475.99999999999994,460C459,460,459,460,442,460C425,460,425,460,408,460C391,460,391,460,374.00000000000006,460C357,460,357,460,340,460C323,460,323,460,306,460C289,460,289,460,272,460C255,460,255,460,237.99999999999997,460C221,460,221,460,204,460C187,460,187,460,170,460C153,460,153,460,136,460C119,460,119,460,102,460C85,460,85,460,68,460C51,460,51,460,34,460C17,460,17,460,0,460Z"><title>ct</title></path><path fill="#1f77b4" d="M0,362.40000000000003C17,362.40000000000003,17,413,34,413C51,413,51,412.54,68,412.54C85,412.54,85,410.24,102,410.24C119,410.24,119,406.1,136,406.1C153,406.1,153,406.1,170,406.1C187,406.1,187,402.42,204,402.42C221,402.42,221,395.98,237.99999999999997,395.98C255,395.98,255,395.98,272,395.98C289,395.98,289,389.53999999999996,306,389.53999999999996C323,389.53999999999996,323,338.4,340,338.4C357,338.4,357,388.15999999999997,374.00000000000006,388.15999999999997C391,388.15999999999997,391,384.94,408,384.94C425,384.94,425,391.38,442,391.38C459,391.38,459,385.86,475.99999999999994,385.86C493,385.86,493,336.56,510,336.56C527,336.56,527,384.94,544,384.94C561,384.94,561,383.1,578,383.1C595,383.1,595,379.88,612,379.88C629,379.88,629,385.86,646,385.86C663,385.86,663,384.02000000000004,680,384.02000000000004L680,428.64000000000004C663,428.64000000000004,663,430.47999999999996,646,430.47999999999996C629,430.47999999999996,629,428.64,612,428.64C595,428.64,595,431.86,578,431.86C561,431.86,561,433.23999999999995,544,433.23999999999995C527,433.23999999999995,527,385.32,510,385.32C493,385.32,493,432.78,475.99999999999994,432.78C459,432.78,459,433.23999999999995,442,433.23999999999995C425,433.23999999999995,425,430.47999999999996,408,430.47999999999996C391,430.47999999999996,391,432.78,374.00000000000006,432.78C357,432.78,357,386.24,340,386.24C323,386.24,323,432.78,306,432.78C289,432.78,289,437.38,272,437.38C255,437.38,255,437.84,237.99999999999997,437.84C221,437.84,221,442.44,204,442.44C187,442.44,187,445.65999999999997,170,445.65999999999997C153,445.65999999999997,153,446.58,136,446.58C119,446.58,119,448.88,102,448.88C85,448.88,85,454.4,68,454.4C51,454.4,51,459,34,459C17,459,17,413.92,0,413.92Z"><title>cb</title></path><path fill="#ff7f0e" d="M0,414.92C17,414.92,17,301.52000000000004,34,301.52000000000004C51,301.52000000000004,51,359.1,68,359.1C85,359.1,85,359.1,102,359.1C119,359.1,119,356.34000000000003,136,356.34000000000003C153,356.34000000000003,153,353.12,170,353.12C187,353.12,187,355.88,204,355.88C221,355.88,221,348.98,237.99999999999997,348.98C255,348.98,255,345.76,272,345.76C289,345.76,289,340.7,306,340.7C323,340.7,323,387.24,340,387.24C357,387.24,357,340.24,374.00000000000006,340.24C391,340.24,391,336.09999999999997,408,336.09999999999997C425,336.09999999999997,425,340.7,442,340.7C459,340.7,459,337.48,475.99999999999994,337.48C493,337.48,493,386.32,510,386.32C527,386.32,527,334.71999999999997,544,334.71999999999997C561,334.71999999999997,561,331.04,578,331.04C595,331.04,595,324.14,612,324.14C629,324.14,629,332.42,646,332.42C663,332.42,663,331.04,680,331.04L680,383.02000000000004C663,383.02000000000004,663,384.86,646,384.86C629,384.86,629,378.88,612,378.88C595,378.88,595,382.1,578,382.1C561,382.1,561,383.94,544,383.94C527,383.94,527,433.7,510,433.7C493,433.7,493,384.86,475.99999999999994,384.86C459,384.86,459,390.38,442,390.38C425,390.38,425,383.94,408,383.94C391,383.94,391,387.15999999999997,374.00000000000006,387.15999999999997C357,387.15999999999997,357,432.32,340,432.32C323,432.32,323,388.53999999999996,306,388.53999999999996C289,388.53999999999996,289,394.98,272,394.98C255,394.98,255,394.98,237.99999999999997,394.98C221,394.98,221,401.42,204,401.42C187,401.42,187,405.1,170,405.1C153,405.1,153,405.1,136,405.1C119,405.1,119,409.24,102,409.24C85,409.24,85,411.54,68,411.54C51,411.54,51,356.72,34,356.72C17,356.72,17,460,0,460Z"><title>ch</title></path></g><g id="xAxis" transform="translate(0,460)" fill="none" font-size="10" font-family="sans-serif" text-anchor="middle"><path class="domain" stroke="currentColor" d="M0.5,0.5H680.5"/><g class="tick" opacity="1" transform="translate(0.5,0)"><line stroke="currentColor" y2="6"/><text fill="currentColor" y="9" dy="0.71em">2,002</text></g><g class="tick" opacity="1" transform="translate(68.5,0)"><line stroke="currentColor" y2="6"/><text fill="currentColor" y="9" dy="0.71em">2,004</text></g><g class="tick" opacity="1" transform="translate(136.5,0)"><line stroke="currentColor" y2="6"/><text fill="currentColor" y="9" dy="0.71em">2,006</text></g><g class="tick" opacity="1" transform="translate(204.5,0)"><line stroke="currentColor" y2="6"/><text fill="currentColor" y="9" dy="0.71em">2,008</text></g><g class="tick" opacity="1" transform="translate(272.5,0)"><line stroke="currentColor" y2="6"/><text fill="currentColor" y="9" dy="0.71em">2,010</text></g><g class="tick" opacity="1" transform="translate(340.5,0)"><line stroke="currentColor" y2="6"/><text fill="currentColor" y="9" dy="0.71em">2,012</text></g><g class="tick" opacity="1" transform="translate(408.5,0)"><line stroke="currentColor" y2="6"/><text fill="currentColor" y="9" dy="0.71em">2,014</text></g><g class="tick" opacity="1" transform="translate(476.49999999999994,0)"><line stroke="currentColor" y2="6"/><text fill="currentColor" y="9" dy="0.71em">2,016</text></g><g class="tick" opacity="1" transform="translate(544.5,0)"><line stroke="currentColor" y2="6"/><text fill="currentColor" y="9" dy="0.71em">2,018</text></g><g class="tick" opacity="1" transform="translate(612.5,0)"><line stroke="currentColor" y2="6"/><text fill="currentColor" y="9" dy="0.71em">2,020</text></g><g class="tick" opacity="1" transform="translate(680.5,0)"><line stroke="currentColor" y2="6"/><text fill="currentColor" y="9" dy="0.71em">2,022</text></g></g><text y="456" x="680" text-anchor="end" style="font-family: Arial, sans-serif; font-size: 12px; fill: rgb(123, 123, 123); font-weight: bold;">season</text><text x="4" text-anchor="start" dominant-baseline="hanging" style="font-family: Arial, sans-serif; font-size: 12px; fill: rgb(123, 123, 123); font-weight: bold;">value</text><g id="labels"><text x="0" y="159.61999999999998" text-anchor="start" alignment-baseline="middle" style="font-family: Arial, sans-serif; font-size: 10px; fill: black; font-weight: bold;">fb</text><text x="680" y="282.90000000000003" text-anchor="end" alignment-baseline="middle" style="font-family: Arial, sans-serif; font-size: 10px; fill: black; font-weight: bold;">sl</text><text x="612" y="444.82" text-anchor="middle" alignment-baseline="middle" style="font-family: Arial, sans-serif; font-size: 10px; fill: black; font-weight: bold;">ct</text><text x="0" y="389.16" text-anchor="start" alignment-baseline="middle" style="font-family: Arial, sans-serif; font-size: 10px; fill: black; font-weight: bold;">cb</text><text x="34" y="332.12" text-anchor="middle" alignment-baseline="middle" style="font-family: Arial, sans-serif; font-size: 10px; fill: black; font-weight: bold;">ch</text></g></g><text x="4" y="4" style="font-family: Arial, sans-serif; font-size: 12px; fill: black; font-weight: bold; dominant-baseline: hanging;"/></g></g></svg>