<svg xmlns="http://www.w3.org/2000/svg" width="805" height="600"><rect width="805" height="600" x="0" y="0" fill="#FFFFFF" id="backgorund"/><g id="viz"><g transform="translate(0,0)"><g transform="translate(10,20)"><g><path fill="#d62728" d="M0,199.35999999999999C19.625,199.35999999999999,19.625,202.72,39.25,202.72C58.875,202.72,58.875,209.44,78.5,209.44C98.125,209.44,98.125,213.36,117.75,213.36C137.375,213.36,137.375,217.84,157,217.84C176.625,217.84,176.625,220.64000000000001,196.25,220.64000000000001C215.875,220.64000000000001,215.875,220.08,235.5,220.08C255.125,220.08,255.125,225.68,274.75,225.68C294.375,225.68,294.375,231.28000000000003,314,231.28000000000003C333.625,231.28000000000003,333.625,236.32000000000002,353.25,236.32000000000002C372.875,236.32000000000002,372.875,237.44000000000003,392.5,237.44000000000003C412.125,237.44000000000003,412.125,236.32000000000002,431.75000000000006,236.32000000000002C451.375,236.32000000000002,451.375,236.88000000000002,471,236.88000000000002C490.625,236.88000000000002,490.625,236.88000000000002,510.25,236.88000000000002C529.875,236.88000000000002,529.875,242.48000000000002,549.5,242.48000000000002C569.125,242.48000000000002,569.125,248.64,588.75,248.64C608.375,248.64,608.375,252.55999999999997,628,252.55999999999997C647.625,252.55999999999997,647.625,266,667.25,266C686.875,266,686.875,277.2,706.5,277.2C726.125,277.2,726.125,273.84,745.75,273.84C765.375,273.84,765.375,285.04,785,285.04L785,560C765.375,560,765.375,560,745.75,560C726.125,560,726.125,560,706.5,560C686.875,560,686.875,560,667.25,560C647.625,560,647.625,560,628,560C608.375,560,608.375,560,588.75,560C569.125,560,569.125,560,549.5,560C529.875,560,529.875,560,510.25,560C490.625,560,490.625,560,471,560C451.375,560,451.375,560,431.75000000000006,560C412.125,560,412.125,560,392.5,560C372.875,560,372.875,560,353.25,560C333.625,560,333.625,560,314,560C294.375,560,294.375,560,274.75,560C255.125,560,255.125,560,235.5,560C215.875,560,215.875,560,196.25,560C176.625,560,176.625,560,157,560C137.375,560,137.375,560,117.75,560C98.125,560,98.125,560,78.5,560C58.875,560,58.875,560,39.25,560C19.625,560,19.625,560,0,560Z"><title>fb</title></path><path fill="#9467bd" d="M0,131.6C19.625,131.6,19.625,136.64,39.25,136.64C58.875,136.64,58.875,133.28,78.5,133.28C98.125,133.28,98.125,130.48,117.75,130.48C137.375,130.48,137.375,133.28,157,133.28C176.625,133.28,176.625,137.2,196.25,137.2C215.875,137.2,215.875,134.4,235.5,134.4C255.125,134.4,255.125,142.24,274.75,142.24C294.375,142.24,294.375,148.4,314,148.4C333.625,148.4,333.625,154.56,353.25,154.56C372.875,154.56,372.875,156.8,392.5,156.8C412.125,156.8,412.125,155.12,431.75000000000006,155.12C451.375,155.12,451.375,160.16000000000003,471,160.16000000000003C490.625,160.16000000000003,490.625,154.56,510.25,154.56C529.875,154.56,529.875,157.36,549.5,157.36C569.125,157.36,569.125,157.35999999999996,588.75,157.35999999999996C608.375,157.35999999999996,608.375,157.91999999999996,628,157.91999999999996C647.625,157.91999999999996,647.625,163.52,667.25,163.52C686.875,163.52,686.875,171.91999999999996,706.5,171.91999999999996C726.125,171.91999999999996,726.125,161.28000000000003,745.75,161.28000000000003C765.375,161.28000000000003,765.375,162.96,785,162.96L785,285.04C765.375,285.04,765.375,273.84,745.75,273.84C726.125,273.84,726.125,277.2,706.5,277.2C686.875,277.2,686.875,266,667.25,266C647.625,266,647.625,252.55999999999997,628,252.55999999999997C608.375,252.55999999999997,608.375,248.64,588.75,248.64C569.125,248.64,569.125,242.48000000000002,549.5,242.48000000000002C529.875,242.48000000000002,529.875,236.88000000000002,510.25,236.88000000000002C490.625,236.88000000000002,490.625,236.88000000000002,471,236.88000000000002C451.375,236.88000000000002,451.375,236.32000000000002,431.75000000000006,236.32000000000002C412.125,236.32000000000002,412.125,237.44000000000003,392.5,237.44000000000003C372.875,237.44000000000003,372.875,236.32000000000002,353.25,236.32000000000002C333.625,236.32000000000002,333.625,231.28000000000003,314,231.28000000000003C294.375,231.28000000000003,294.375,225.68,274.75,225.68C255.125,225.68,255.125,220.08,235.5,220.08C215.875,220.08,215.875,220.64000000000001,196.25,220.64000000000001C176.625,220.64000000000001,176.625,217.84,157,217.84C137.375,217.84,137.375,213.36,117.75,213.36C98.125,213.36,98.125,209.44,78.5,209.44C58.875,209.44,58.875,202.72,39.25,202.72C19.625,202.72,19.625,199.35999999999999,0,199.35999999999999Z"><title>sl</title></path><path fill="#2ca02c" d="M0,131.6C19.625,131.6,19.625,136.64,39.25,136.64C58.875,136.64,58.875,127.67999999999999,78.5,127.67999999999999C98.125,127.67999999999999,98.125,118.15999999999998,117.75,118.15999999999998C137.375,118.15999999999998,137.375,118.15999999999998,157,118.15999999999998C176.625,118.15999999999998,176.625,120.95999999999998,196.25,120.95999999999998C215.875,120.95999999999998,215.875,114.23999999999998,235.5,114.23999999999998C255.125,114.23999999999998,255.125,116.47999999999998,274.75,116.47999999999998C294.375,116.47999999999998,294.375,122.07999999999998,314,122.07999999999998C333.625,122.07999999999998,333.625,122.63999999999999,353.25,122.63999999999999C372.875,122.63999999999999,372.875,124.32,392.5,124.32C412.125,124.32,412.125,123.19999999999999,431.75000000000006,123.19999999999999C451.375,123.19999999999999,451.375,125.43999999999998,471,125.43999999999998C490.625,125.43999999999998,490.625,123.19999999999999,510.25,123.19999999999999C529.875,123.19999999999999,529.875,125.43999999999998,549.5,125.43999999999998C569.125,125.43999999999998,569.125,126.55999999999993,588.75,126.55999999999993C608.375,126.55999999999993,608.375,126.55999999999993,628,126.55999999999993C647.625,126.55999999999993,647.625,130.48000000000005,667.25,130.48000000000005C686.875,130.48000000000005,686.875,134.95999999999992,706.5,134.95999999999992C726.125,134.95999999999992,726.125,126.55999999999999,745.75,126.55999999999999C765.375,126.55999999999999,765.375,126.00000000000006,785,126.00000000000006L785,162.96C765.375,162.96,765.375,161.28000000000003,745.75,161.28000000000003C726.125,161.28000000000003,726.125,171.91999999999996,706.5,171.91999999999996C686.875,171.91999999999996,686.875,163.52,667.25,163.52C647.625,163.52,647.625,157.91999999999996,628,157.91999999999996C608.375,157.91999999999996,608.375,157.35999999999996,588.75,157.35999999999996C569.125,157.35999999999996,569.125,157.36,549.5,157.36C529.875,157.36,529.875,154.56,510.25,154.56C490.625,154.56,490.625,160.16000000000003,471,160.16000000000003C451.375,160.16000000000003,451.375,155.12,431.75000000000006,155.12C412.125,155.12,412.125,156.8,392.5,156.8C372.875,156.8,372.875,154.56,353.25,154.56C333.625,154.56,333.625,148.4,314,148.4C294.375,148.4,294.375,142.24,274.75,142.24C255.125,142.24,255.125,134.4,235.5,134.4C215.875,134.4,215.875,137.2,196.25,137.2C176.625,137.2,176.625,133.28,157,133.28C137.375,133.28,137.375,130.48,117.75,130.48C98.125,130.48,98.125,133.28,78.5,133.28C58.875,133.28,58.875,136.64,39.25,136.64C19.625,136.64,19.625,131.6,0,131.6Z"><title>ct</title></path><path fill="#1f77b4" d="M0,68.88C19.625,68.88,19.625,80.64000000000001,39.25,80.64000000000001C58.875,80.64000000000001,58.875,76.72,78.5,76.72C98.125,76.72,98.125,71.12,117.75,71.12C137.375,71.12,137.375,68.88,157,68.88C176.625,68.88,176.625,72.8,196.25,72.8C215.875,72.8,215.875,65.52,235.5,65.52C255.125,65.52,255.125,65.52,274.75,65.52C294.375,65.52,294.375,71.68,314,71.68C333.625,71.68,333.625,70,353.25,70C372.875,70,372.875,66.08,392.5,66.08C412.125,66.08,412.125,68.88,431.75000000000006,68.88C451.375,68.88,451.375,70,471,70C490.625,70,490.625,72.24000000000001,510.25,72.24000000000001C529.875,72.24000000000001,529.875,68.32,549.5,68.32C569.125,68.32,569.125,67.19999999999993,588.75,67.19999999999993C608.375,67.19999999999993,608.375,67.75999999999993,628,67.75999999999993C647.625,67.75999999999993,647.625,71.12000000000006,667.25,71.12000000000006C686.875,71.12000000000006,686.875,75.59999999999994,706.5,75.59999999999994C726.125,75.59999999999994,726.125,72.24000000000001,745.75,72.24000000000001C765.375,72.24000000000001,765.375,71.68000000000006,785,71.68000000000006L785,126.00000000000006C765.375,126.00000000000006,765.375,126.55999999999999,745.75,126.55999999999999C726.125,126.55999999999999,726.125,134.95999999999992,706.5,134.95999999999992C686.875,134.95999999999992,686.875,130.48000000000005,667.25,130.48000000000005C647.625,130.48000000000005,647.625,126.55999999999993,628,126.55999999999993C608.375,126.55999999999993,608.375,126.55999999999993,588.75,126.55999999999993C569.125,126.55999999999993,569.125,125.43999999999998,549.5,125.43999999999998C529.875,125.43999999999998,529.875,123.19999999999999,510.25,123.19999999999999C490.625,123.19999999999999,490.625,125.43999999999998,471,125.43999999999998C451.375,125.43999999999998,451.375,123.19999999999999,431.75000000000006,123.19999999999999C412.125,123.19999999999999,412.125,124.32,392.5,124.32C372.875,124.32,372.875,122.63999999999999,353.25,122.63999999999999C333.625,122.63999999999999,333.625,122.07999999999998,314,122.07999999999998C294.375,122.07999999999998,294.375,116.47999999999998,274.75,116.47999999999998C255.125,116.47999999999998,255.125,114.23999999999998,235.5,114.23999999999998C215.875,114.23999999999998,215.875,120.95999999999998,196.25,120.95999999999998C176.625,120.95999999999998,176.625,118.15999999999998,157,118.15999999999998C137.375,118.15999999999998,137.375,118.15999999999998,117.75,118.15999999999998C98.125,118.15999999999998,98.125,127.67999999999999,78.5,127.67999999999999C58.875,127.67999999999999,58.875,136.64,39.25,136.64C19.625,136.64,19.625,131.6,0,131.6Z"><title>cb</title></path><path fill="#ff7f0e" d="M0,14.000000000000012C19.625,14.000000000000012,19.625,13.440000000000012,39.25,13.440000000000012C58.875,13.440000000000012,58.875,12.880000000000011,78.5,12.880000000000011C98.125,12.880000000000011,98.125,10.080000000000009,117.75,10.080000000000009C137.375,10.080000000000009,137.375,9.520000000000008,157,9.520000000000008C176.625,9.520000000000008,176.625,9.520000000000008,196.25,9.520000000000008C215.875,9.520000000000008,215.875,10.080000000000009,235.5,10.080000000000009C255.125,10.080000000000009,255.125,9.520000000000008,274.75,9.520000000000008C294.375,9.520000000000008,294.375,11.76000000000001,314,11.76000000000001C333.625,11.76000000000001,333.625,11.76000000000001,353.25,11.76000000000001C372.875,11.76000000000001,372.875,11.20000000000001,392.5,11.20000000000001C412.125,11.20000000000001,412.125,11.76000000000001,431.75000000000006,11.76000000000001C451.375,11.76000000000001,451.375,11.76000000000001,471,11.76000000000001C490.625,11.76000000000001,490.625,11.76000000000001,510.25,11.76000000000001C529.875,11.76000000000001,529.875,10.64000000000001,549.5,10.64000000000001C569.125,10.64000000000001,569.125,9.519999999999946,588.75,9.519999999999946C608.375,9.519999999999946,608.375,7.839999999999945,628,7.839999999999945C647.625,7.839999999999945,647.625,8.96000000000007,667.25,8.96000000000007C686.875,8.96000000000007,686.875,8.959999999999946,706.5,8.959999999999946C726.125,8.959999999999946,726.125,8.400000000000007,745.75,8.400000000000007C765.375,8.400000000000007,765.375,8.40000000000007,785,8.40000000000007L785,71.68000000000006C765.375,71.68000000000006,765.375,72.24000000000001,745.75,72.24000000000001C726.125,72.24000000000001,726.125,75.59999999999994,706.5,75.59999999999994C686.875,75.59999999999994,686.875,71.12000000000006,667.25,71.12000000000006C647.625,71.12000000000006,647.625,67.75999999999993,628,67.75999999999993C608.375,67.75999999999993,608.375,67.19999999999993,588.75,67.19999999999993C569.125,67.19999999999993,569.125,68.32,549.5,68.32C529.875,68.32,529.875,72.24000000000001,510.25,72.24000000000001C490.625,72.24000000000001,490.625,70,471,70C451.375,70,451.375,68.88,431.75000000000006,68.88C412.125,68.88,412.125,66.08,392.5,66.08C372.875,66.08,372.875,70,353.25,70C333.625,70,333.625,71.68,314,71.68C294.375,71.68,294.375,65.52,274.75,65.52C255.125,65.52,255.125,65.52,235.5,65.52C215.875,65.52,215.875,72.8,196.25,72.8C176.625,72.8,176.625,68.88,157,68.88C137.375,68.88,137.375,71.12,117.75,71.12C98.125,71.12,98.125,76.72,78.5,76.72C58.875,76.72,58.875,80.64000000000001,39.25,80.64000000000001C19.625,80.64000000000001,19.625,68.88,0,68.88Z"><title>ch</title></path></g><g id="xAxis" transform="translate(0,560)" fill="none" font-size="10" font-family="sans-serif" text-anchor="middle"><path class="domain" stroke="currentColor" d="M0.5,0.5H785.5"/><g class="tick" opacity="1" transform="translate(0.5,0)"><line stroke="currentColor" y2="6"/><text fill="currentColor" y="9" dy="0.71em">2,002</text></g><g class="tick" opacity="1" transform="translate(79,0)"><line stroke="currentColor" y2="6"/><text fill="currentColor" y="9" dy="0.71em">2,004</text></g><g class="tick" opacity="1" transform="translate(157.5,0)"><line stroke="currentColor" y2="6"/><text fill="currentColor" y="9" dy="0.71em">2,006</text></g><g class="tick" opacity="1" transform="translate(236,0)"><line stroke="currentColor" y2="6"/><text fill="currentColor" y="9" dy="0.71em">2,008</text></g><g class="tick" opacity="1" transform="translate(314.5,0)"><line stroke="currentColor" y2="6"/><text fill="currentColor" y="9" dy="0.71em">2,010</text></g><g class="tick" opacity="1" transform="translate(393,0)"><line stroke="currentColor" y2="6"/><text fill="currentColor" y="9" dy="0.71em">2,012</text></g><g class="tick" opacity="1" transform="translate(471.5,0)"><line stroke="currentColor" y2="6"/><text fill="currentColor" y="9" dy="0.71em">2,014</text></g><g class="tick" opacity="1" transform="translate(550,0)"><line stroke="currentColor" y2="6"/><text fill="currentColor" y="9" dy="0.71em">2,016</text></g><g class="tick" opacity="1" transform="translate(628.5,0)"><line stroke="currentColor" y2="6"/><text fill="currentColor" y="9" dy="0.71em">2,018</text></g><g class="tick" opacity="1" transform="translate(707,0)"><line stroke="currentColor" y2="6"/><text fill="currentColor" y="9" dy="0.71em">2,020</text></g><g class="tick" opacity="1" transform="translate(785.5,0)"><line stroke="currentColor" y2="6"/><text fill="currentColor" y="9" dy="0.71em">2,022</text></g></g><text y="556" x="785" text-anchor="end" style="font-family: Arial, sans-serif; font-size: 12px; fill: rgb(123, 123, 123); font-weight: bold;">season</text><text x="4" text-anchor="start" dominant-baseline="hanging" style="font-family: Arial, sans-serif; font-size: 12px; fill: rgb(123, 123, 123); font-weight: bold;">value</text><g id="labels"><text x="0" y="379.67999999999995" text-anchor="start" alignment-baseline="middle" style="font-family: Arial, sans-serif; font-size: 10px; fill: black; font-weight: bold;">fb</text><text x="785" y="224" text-anchor="end" alignment-baseline="middle" style="font-family: Arial, sans-serif; font-size: 10px; fill: black; font-weight: bold;">sl</text><text x="706.5" y="153.43999999999994" text-anchor="middle" alignment-baseline="middle" style="font-family: Arial, sans-serif; font-size: 10px; fill: black; font-weight: bold;">ct</text><text x="0" y="100.24000000000002" text-anchor="start" alignment-baseline="middle" style="font-family: Arial, sans-serif; font-size: 10px; fill: black; font-weight: bold;">cb</text><text x="39.25" y="47.04000000000004" text-anchor="middle" alignment-baseline="middle" style="font-family: Arial, sans-serif; font-size: 10px; fill: black; font-weight: bold;">ch</text></g></g><text x="4" y="4" style="font-family: Arial, sans-serif; font-size: 12px; fill: black; font-weight: bold; dominant-baseline: hanging;"/></g></g></svg>